REM DIRINDEX 1\2,1\3
REM DIRNAME cjc102,folder01,folder02
TITLE ""
FILE "CD1Track40.mp3" MP3
  TRACK 01 AUDIO
    TITLE "0:"
    INDEX 01 00:00:00
  TRACK 02 AUDIO
    TITLE "3:cjc102_1880"
    INDEX 01 00:00:27
  TRACK 03 AUDIO
    TITLE "0:"
    INDEX 01 00:01:13
  TRACK 04 AUDIO
    TITLE "2:cjc102_1881"
    INDEX 01 00:01:15
  TRACK 05 AUDIO
    TITLE "0:"
    INDEX 01 00:02:10
  TRACK 06 AUDIO
    TITLE "3:cjc102_1882"
    INDEX 01 00:03:15
  TRACK 07 AUDIO
    TITLE "0:"
    INDEX 01 00:03:74
  TRACK 08 AUDIO
    TITLE "2:cjc102_1883"
    INDEX 01 00:04:35
  TRACK 09 AUDIO
    TITLE "0:"
    INDEX 01 00:05:48
  TRACK 10 AUDIO
    TITLE "3:cjc102_1884"
    INDEX 01 00:07:02
  TRACK 11 AUDIO
    TITLE "0:"
    INDEX 01 00:07:62
  TRACK 12 AUDIO
    TITLE "2:cjc102_1885"
    INDEX 01 00:07:66
  TRACK 13 AUDIO
    TITLE "0:"
    INDEX 01 00:09:06
  TRACK 14 AUDIO
    TITLE "3:cjc102_1886"
    INDEX 01 00:10:37
  TRACK 15 AUDIO
    TITLE "0:"
    INDEX 01 00:11:31
  TRACK 16 AUDIO
    TITLE "2:cjc102_1887"
    INDEX 01 00:11:54
  TRACK 17 AUDIO
    TITLE "0:"
    INDEX 01 00:12:58
  TRACK 18 AUDIO
    TITLE "3:cjc102_1888"
    INDEX 01 00:13:61
  TRACK 19 AUDIO
    TITLE "0:"
    INDEX 01 00:14:43
  TRACK 20 AUDIO
    TITLE "2:cjc102_1889"
    INDEX 01 00:15:74
  TRACK 21 AUDIO
    TITLE "0:"
    INDEX 01 00:17:10
  TRACK 22 AUDIO
    TITLE "3:cjc102_1890"
    INDEX 01 00:18:74
  TRACK 23 AUDIO
    TITLE "0:"
    INDEX 01 00:19:71
  TRACK 24 AUDIO
    TITLE "2:cjc102_1891"
    INDEX 01 00:20:20
  TRACK 25 AUDIO
    TITLE "0:"
    INDEX 01 00:21:39
  TRACK 26 AUDIO
    TITLE "3:cjc102_1892"
    INDEX 01 00:23:03
  TRACK 27 AUDIO
    TITLE "0:"
    INDEX 01 00:23:69
  TRACK 28 AUDIO
    TITLE "2:cjc102_1893"
    INDEX 01 00:24:51
  TRACK 29 AUDIO
    TITLE "0:"
    INDEX 01 00:25:60
  TRACK 30 AUDIO
    TITLE "3:cjc102_1894"
    INDEX 01 00:27:02
  TRACK 31 AUDIO
    TITLE "0:"
    INDEX 01 00:27:73
  TRACK 32 AUDIO
    TITLE "2:cjc102_1895"
    INDEX 01 00:28:49
  TRACK 33 AUDIO
    TITLE "0:"
    INDEX 01 00:29:52
  TRACK 34 AUDIO
    TITLE "3:cjc102_1896"
    INDEX 01 00:31:41
  TRACK 35 AUDIO
    TITLE "0:"
    INDEX 01 00:32:33
  TRACK 36 AUDIO
    TITLE "2:cjc102_1897"
    INDEX 01 00:32:66
  TRACK 37 AUDIO
    TITLE "0:"
    INDEX 01 00:34:10
  TRACK 38 AUDIO
    TITLE "3:cjc102_1898"
    INDEX 01 00:35:41
  TRACK 39 AUDIO
    TITLE "0:"
    INDEX 01 00:36:36
  TRACK 40 AUDIO
    TITLE "2:cjc102_1899"
    INDEX 01 00:37:30
  TRACK 41 AUDIO
    TITLE "0:"
    INDEX 01 00:38:43
  TRACK 42 AUDIO
    TITLE "3:cjc102_1900"
    INDEX 01 00:40:28
  TRACK 43 AUDIO
    TITLE "0:"
    INDEX 01 00:41:45
  TRACK 44 AUDIO
    TITLE "2:cjc102_1901"
    INDEX 01 00:41:67
  TRACK 45 AUDIO
    TITLE "0:"
    INDEX 01 00:42:63
  TRACK 46 AUDIO
    TITLE "3:cjc102_1902"
    INDEX 01 00:44:11
  TRACK 47 AUDIO
    TITLE "0:"
    INDEX 01 00:45:22
  TRACK 48 AUDIO
    TITLE "2:cjc102_1903"
    INDEX 01 00:45:65
  TRACK 49 AUDIO
    TITLE "0:"
    INDEX 01 00:46:66
  TRACK 50 AUDIO
    TITLE "3:cjc102_1904"
    INDEX 01 00:48:28
  TRACK 51 AUDIO
    TITLE "0:"
    INDEX 01 00:49:49
  TRACK 52 AUDIO
    TITLE "2:cjc102_1905"
    INDEX 01 00:50:15
  TRACK 53 AUDIO
    TITLE "0:"
    INDEX 01 00:51:15
  TRACK 54 AUDIO
    TITLE "3:cjc102_1906"
    INDEX 01 00:52:36
  TRACK 55 AUDIO
    TITLE "0:"
    INDEX 01 00:53:55
  TRACK 56 AUDIO
    TITLE "2:cjc102_1907"
    INDEX 01 00:54:27
  TRACK 57 AUDIO
    TITLE "0:"
    INDEX 01 00:55:24
  TRACK 58 AUDIO
    TITLE "3:cjc102_1908"
    INDEX 01 00:56:61
  TRACK 59 AUDIO
    TITLE "0:"
    INDEX 01 00:57:66
  TRACK 60 AUDIO
    TITLE "2:cjc102_1909"
    INDEX 01 00:58:58
  TRACK 61 AUDIO
    TITLE "0:"
    INDEX 01 00:59:55
  TRACK 62 AUDIO
    TITLE "3:cjc102_1910"
    INDEX 01 01:01:36
  TRACK 63 AUDIO
    TITLE "0:"
    INDEX 01 01:02:46
  TRACK 64 AUDIO
    TITLE "2:cjc102_1911"
    INDEX 01 01:02:67
  TRACK 65 AUDIO
    TITLE "0:"
    INDEX 01 01:03:67
  TRACK 66 AUDIO
    TITLE "3:cjc102_1912"
    INDEX 01 01:05:50
  TRACK 67 AUDIO
    TITLE "0:"
    INDEX 01 01:06:69
  TRACK 68 AUDIO
    TITLE "2:cjc102_1913"
    INDEX 01 01:07:31
  TRACK 69 AUDIO
    TITLE "0:"
    INDEX 01 01:08:31
  TRACK 70 AUDIO
    TITLE "3:cjc102_1914"
    INDEX 01 01:09:59
  TRACK 71 AUDIO
    TITLE "0:"
    INDEX 01 01:11:09
  TRACK 72 AUDIO
    TITLE "2:cjc102_1915"
    INDEX 01 01:11:52
  TRACK 73 AUDIO
    TITLE "0:"
    INDEX 01 01:12:46
  TRACK 74 AUDIO
    TITLE "3:cjc102_1916"
    INDEX 01 01:14:14
  TRACK 75 AUDIO
    TITLE "0:"
    INDEX 01 01:15:39
  TRACK 76 AUDIO
    TITLE "2:cjc102_1917"
    INDEX 01 01:16:20
  TRACK 77 AUDIO
    TITLE "0:"
    INDEX 01 01:17:16
  TRACK 78 AUDIO
    TITLE "3:cjc102_1918"
    INDEX 01 01:18:64
  TRACK 79 AUDIO
    TITLE "0:"
    INDEX 01 01:20:02
  TRACK 80 AUDIO
    TITLE "2:cjc102_1919"
    INDEX 01 01:20:48
  TRACK 81 AUDIO
    TITLE "0:"
    INDEX 01 01:21:43
  TRACK 82 AUDIO
    TITLE "3:cjc102_1920"
    INDEX 01 01:22:66
  TRACK 83 AUDIO
    TITLE "0:"
    INDEX 01 01:24:18
  TRACK 84 AUDIO
    TITLE "2:cjc102_1921"
    INDEX 01 01:25:04
  TRACK 85 AUDIO
    TITLE "0:"
    INDEX 01 01:26:03
  TRACK 86 AUDIO
    TITLE "3:cjc102_1922"
    INDEX 01 01:27:32
  TRACK 87 AUDIO
    TITLE "0:"
    INDEX 01 01:28:55
  TRACK 88 AUDIO
    TITLE "2:cjc102_1923"
    INDEX 01 01:29:07
  TRACK 89 AUDIO
    TITLE "0:"
    INDEX 01 01:30:13
  TRACK 90 AUDIO
    TITLE "3:cjc102_1924"
    INDEX 01 01:31:55
  TRACK 91 AUDIO
    TITLE "0:"
    INDEX 01 01:33:07
  TRACK 92 AUDIO
    TITLE "2:cjc102_1925"
    INDEX 01 01:33:44
  TRACK 93 AUDIO
    TITLE "0:"
    INDEX 01 01:34:52
  TRACK 94 AUDIO
    TITLE "3:cjc102_1926"
    INDEX 01 01:35:71
  TRACK 95 AUDIO
    TITLE "0:"
    INDEX 01 01:37:26
  TRACK 96 AUDIO
    TITLE "2:cjc102_1927"
    INDEX 01 01:38:04
  TRACK 97 AUDIO
    TITLE "0:"
    INDEX 01 01:39:04
  TRACK 98 AUDIO
    TITLE "3:cjc102_1928"
    INDEX 01 01:40:62
  TRACK 99 AUDIO
    TITLE "0:"
    INDEX 01 01:42:06
  TRACK 100 AUDIO
    TITLE "2:cjc102_1929"
    INDEX 01 01:42:35
  TRACK 101 AUDIO
    TITLE "0:"
    INDEX 01 01:43:51
  TRACK 102 AUDIO
    TITLE "3:cjc102_1930"
    INDEX 01 01:44:70
  TRACK 103 AUDIO
    TITLE "0:"
    INDEX 01 01:46:29
  TRACK 104 AUDIO
    TITLE "2:cjc102_1931"
    INDEX 01 01:46:49
  TRACK 105 AUDIO
    TITLE "0:"
    INDEX 01 01:47:72
  TRACK 106 AUDIO
    TITLE "3:cjc102_1932"
    INDEX 01 01:49:28
  TRACK 107 AUDIO
    TITLE "0:"
    INDEX 01 01:50:60
  TRACK 108 AUDIO
    TITLE "2:cjc102_1933"
    INDEX 01 01:51:34
  TRACK 109 AUDIO
    TITLE "0:"
    INDEX 01 01:52:61
  TRACK 110 AUDIO
    TITLE "3:cjc102_1934"
    INDEX 01 01:53:67
  TRACK 111 AUDIO
    TITLE "0:"
    INDEX 01 01:55:26
  TRACK 112 AUDIO
    TITLE "2:cjc102_1935"
    INDEX 01 01:56:04
  TRACK 113 AUDIO
    TITLE "0:"
    INDEX 01 01:57:08
  TRACK 114 AUDIO
    TITLE "3:cjc102_1936"
    INDEX 01 01:57:70
  TRACK 115 AUDIO
    TITLE "0:"
    INDEX 01 01:59:24
  TRACK 116 AUDIO
    TITLE "2:cjc102_1937"
    INDEX 01 01:59:30
  TRACK 117 AUDIO
    TITLE "0:"
    INDEX 01 02:00:43
  TRACK 118 AUDIO
    TITLE "2:cjc102_1938"
    INDEX 01 02:01:11
  TRACK 119 AUDIO
    TITLE "0:"
    INDEX 01 02:02:28
  TRACK 120 AUDIO
    TITLE "3:cjc102_1939"
    INDEX 01 02:03:14
  TRACK 121 AUDIO
    TITLE "0:"
    INDEX 01 02:04:31
  TRACK 122 AUDIO
    TITLE "2:cjc102_1940"
    INDEX 01 02:04:66
  TRACK 123 AUDIO
    TITLE "0:"
    INDEX 01 02:05:66
  TRACK 124 AUDIO
    TITLE "2:cjc102_1941"
    INDEX 01 02:06:55
  TRACK 125 AUDIO
    TITLE "0:"
    INDEX 01 02:07:63
  TRACK 126 AUDIO
    TITLE "3:cjc102_1942"
    INDEX 01 02:08:66
  TRACK 127 AUDIO
    TITLE "0:"
    INDEX 01 02:10:24
  TRACK 128 AUDIO
    TITLE "2:cjc102_1943"
    INDEX 01 02:10:63
  TRACK 129 AUDIO
    TITLE "0:"
    INDEX 01 02:11:68
  TRACK 130 AUDIO
    TITLE "2:cjc102_1944"
    INDEX 01 02:12:50
  TRACK 131 AUDIO
    TITLE "0:"
    INDEX 01 02:13:59
  TRACK 132 AUDIO
    TITLE "3:cjc102_1945"
    INDEX 01 02:15:21
  TRACK 133 AUDIO
    TITLE "0:"
    INDEX 01 02:16:52
  TRACK 134 AUDIO
    TITLE "2:cjc102_1946"
    INDEX 01 02:16:72
  TRACK 135 AUDIO
    TITLE "0:"
    INDEX 01 02:18:12
  TRACK 136 AUDIO
    TITLE "2:cjc102_1947"
    INDEX 01 02:18:72
  TRACK 137 AUDIO
    TITLE "0:"
    INDEX 01 02:19:70
  TRACK 138 AUDIO
    TITLE "3:cjc102_1948"
    INDEX 01 02:21:45
  TRACK 139 AUDIO
    TITLE "0:"
    INDEX 01 02:23:13
  TRACK 140 AUDIO
    TITLE "2:cjc102_1949"
    INDEX 01 02:23:21
  TRACK 141 AUDIO
    TITLE "0:"
    INDEX 01 02:24:34
  TRACK 142 AUDIO
    TITLE "2:cjc102_1950"
    INDEX 01 02:25:20
  TRACK 143 AUDIO
    TITLE "0:"
    INDEX 01 02:26:21
  TRACK 144 AUDIO
    TITLE "3:cjc102_1951"
    INDEX 01 02:27:09
  TRACK 145 AUDIO
    TITLE "0:"
    INDEX 01 02:28:37
  TRACK 146 AUDIO
    TITLE "2:cjc102_1952"
    INDEX 01 02:29:27
  TRACK 147 AUDIO
    TITLE "0:"
    INDEX 01 02:30:38
  TRACK 148 AUDIO
    TITLE "2:cjc102_1953"
    INDEX 01 02:31:24
  TRACK 149 AUDIO
    TITLE "0:"
    INDEX 01 02:32:29
